<?xml version="1.0" standalone="no"?>
<!DOCTYPE svg PUBLIC "-//W3C//DTD SVG 20010904//EN"
 "http://www.w3.org/TR/2001/REC-SVG-20010904/DTD/svg10.dtd">
<svg version="1.0" xmlns="http://www.w3.org/2000/svg"
 width="1062.000000pt" height="1062.000000pt" viewBox="0 0 1062.000000 1062.000000"
 preserveAspectRatio="xMidYMid meet">
<metadata>
Created by potrace 1.14, written by Peter Selinger 2001-2017
</metadata>
<g transform="translate(0.000000,1062.000000) scale(0.100000,-0.100000)"
fill="#000000" stroke="none">
<path d="M2076 10483 c-3 -3 28 -33 67 -67 104 -91 1659 -1399 1872 -1576 50
-41 92 -77 95 -80 8 -9 790 -662 950 -794 80 -66 155 -128 167 -139 14 -12 26
-16 36 -10 21 11 696 610 1172 1038 107 96 292 262 385 345 125 112 302 271
350 314 25 23 86 77 135 121 50 44 92 82 95 85 3 3 45 41 95 85 49 44 94 85
100 91 5 6 71 64 145 130 74 65 137 121 140 125 3 3 75 67 160 144 85 76 169
151 185 167 l30 29 -3087 -2 c-1698 -1 -3090 -4 -3092 -6z"/>
<path d="M1233 10414 c-18 -14 -33 -29 -33 -34 0 -13 173 -306 1715 -2910 458
-773 935 -1579 1060 -1792 l227 -388 -25 -48 c-35 -67 -671 -1143 -2853 -4826
-68 -114 -124 -213 -124 -220 0 -12 63 -66 78 -66 4 0 17 10 28 22 17 20 155
149 259 243 17 15 55 51 85 79 30 28 116 107 190 176 74 69 162 150 195 182
33 31 71 66 85 78 14 12 48 43 75 69 48 45 308 285 331 306 6 5 40 37 75 70
54 50 195 181 308 284 90 83 277 257 341 317 41 38 165 153 275 254 110 101
227 209 259 240 33 30 67 62 76 70 48 44 143 131 200 184 36 34 153 142 260
241 107 99 200 184 206 190 6 5 64 60 130 120 221 205 269 249 274 255 3 3 59
55 125 115 202 185 215 198 215 210 0 11 -64 112 -298 470 -225 345 -632 976
-632 980 0 5 239 378 458 715 151 233 296 459 389 609 l84 134 -68 66 c-38 36
-98 93 -133 126 -75 68 -169 156 -255 235 -33 31 -123 114 -200 185 -77 71
-142 131 -145 134 -3 3 -59 55 -125 116 -66 60 -149 137 -185 170 -36 34 -96
90 -135 126 -38 35 -97 90 -130 121 -33 31 -70 65 -81 75 -12 10 -72 65 -134
123 -62 58 -118 110 -124 115 -20 18 -279 258 -346 321 -36 33 -94 87 -130
120 -36 32 -94 86 -130 120 -36 33 -94 87 -130 120 -36 32 -67 61 -70 64 -3 3
-70 66 -150 140 -80 73 -198 183 -264 244 -65 61 -127 118 -137 127 -10 8 -71
65 -136 125 -121 113 -380 351 -399 369 -13 12 -218 202 -316 293 -37 34 -71
62 -75 62 -4 0 -23 -12 -40 -26z"/>
<path d="M9275 10368 c-70 -61 -376 -338 -385 -348 -3 -3 -88 -82 -190 -175
-102 -93 -187 -172 -190 -175 -4 -4 -186 -172 -260 -240 -17 -15 -93 -86 -210
-195 -36 -33 -119 -109 -185 -170 -65 -60 -126 -117 -135 -125 -9 -8 -101 -94
-205 -190 -105 -96 -215 -198 -245 -227 -30 -28 -68 -64 -85 -78 -16 -15 -55
-51 -85 -79 -30 -28 -147 -137 -260 -241 -113 -104 -227 -210 -255 -236 -27
-26 -60 -56 -71 -66 -12 -10 -75 -68 -140 -129 -66 -60 -182 -168 -259 -240
-77 -71 -162 -150 -190 -175 -27 -26 -66 -61 -85 -79 -19 -18 -55 -51 -80 -74
-25 -23 -106 -98 -180 -166 -223 -206 -230 -213 -230 -221 0 -11 234 -376 608
-949 328 -502 325 -496 313 -519 -11 -20 -255 -400 -396 -616 -301 -461 -525
-813 -525 -824 0 -4 21 -27 48 -51 26 -24 83 -78 127 -119 124 -118 346 -324
366 -342 10 -9 69 -63 130 -120 62 -57 117 -108 123 -114 6 -5 70 -64 141
-130 71 -66 135 -124 141 -130 6 -5 59 -55 119 -110 123 -114 123 -114 276
-255 183 -169 242 -224 264 -245 12 -11 46 -42 76 -70 30 -27 108 -100 174
-161 66 -61 134 -123 150 -138 17 -15 48 -44 70 -65 22 -20 105 -97 185 -171
80 -73 199 -183 264 -244 66 -61 149 -138 185 -171 36 -33 99 -91 141 -130 41
-38 129 -119 195 -180 65 -60 151 -139 189 -175 39 -36 100 -92 136 -125 35
-33 71 -67 80 -75 21 -21 371 -341 397 -364 22 -18 23 -18 59 9 22 17 34 33
31 44 -5 18 -398 685 -1539 2611 -184 311 -357 603 -385 650 -27 47 -115 195
-195 330 -163 275 -304 515 -546 925 -90 154 -203 345 -249 424 l-86 143 24
42 c60 108 1010 1716 2044 3461 624 1053 918 1551 928 1573 8 18 6 27 -13 47
-13 14 -31 25 -39 25 -9 0 -47 -28 -86 -62z"/>
<path d="M4944 2519 c-197 -166 -381 -321 -409 -344 -27 -24 -167 -141 -310
-261 -492 -414 -780 -656 -805 -677 -14 -12 -95 -80 -180 -152 -85 -71 -157
-132 -160 -135 -3 -3 -45 -39 -95 -80 -49 -41 -92 -77 -95 -80 -3 -3 -45 -39
-95 -80 -147 -123 -535 -450 -602 -506 -39 -33 -57 -54 -48 -58 7 -2 125 -6
262 -7 516 -4 5884 -1 5889 3 2 3 -71 71 -162 153 -91 81 -171 153 -177 159
-7 6 -95 85 -197 176 -102 91 -187 167 -190 170 -3 3 -48 43 -100 90 -52 47
-97 87 -100 90 -3 3 -198 179 -435 390 -236 212 -435 389 -441 395 -6 5 -46
42 -89 80 -43 39 -83 75 -89 80 -6 6 -54 49 -106 95 -52 47 -274 246 -493 443
-220 196 -403 357 -407 357 -3 0 -168 -136 -366 -301z"/>
</g>
</svg>
