<?xml version="1.0" standalone="no"?>
<!DOCTYPE svg PUBLIC "-//W3C//DTD SVG 20010904//EN"
 "http://www.w3.org/TR/2001/REC-SVG-20010904/DTD/svg10.dtd">
<svg version="1.0" xmlns="http://www.w3.org/2000/svg"
 width="681.000000pt" height="681.000000pt" viewBox="0 0 681.000000 681.000000"
 preserveAspectRatio="xMidYMid meet">
<metadata>
Created by potrace 1.14, written by Peter Selinger 2001-2017
</metadata>
<g transform="translate(0.000000,681.000000) scale(0.100000,-0.100000)"
fill="#000000" stroke="none">
<path d="M1678 6212 c-65 -2 -79 -6 -88 -22 -20 -38 2 -62 215 -239 55 -46
112 -94 126 -106 125 -108 1186 -985 1268 -1048 51 -40 59 -42 130 -45 68 -3
80 -1 114 22 42 29 231 185 922 760 751 625 738 613 715 655 -8 16 -24 20 -82
23 -84 5 -3203 5 -3320 0z"/>
<path d="M1079 6159 c-11 -11 -18 -27 -15 -36 3 -8 70 -123 147 -256 78 -133
150 -258 161 -277 32 -55 676 -1142 877 -1479 99 -167 181 -304 181 -306 0 -2
48 -81 106 -176 59 -96 116 -189 126 -206 11 -18 24 -33 28 -33 4 0 48 50 96
111 49 61 94 116 99 123 41 45 230 307 242 334 39 93 35 208 -11 308 -26 57
-126 162 -412 434 -147 141 -422 402 -474 450 -25 23 -110 104 -190 180 -80
76 -161 152 -180 170 -19 18 -111 105 -205 194 -505 480 -511 486 -542 486 -7
0 -22 -9 -34 -21z"/>
<path d="M5527 6165 c-16 -8 -54 -39 -85 -69 -31 -30 -77 -73 -102 -96 -78
-73 -331 -312 -410 -387 -41 -39 -88 -84 -105 -99 -16 -15 -102 -95 -189 -178
-88 -83 -171 -162 -186 -176 -15 -14 -98 -93 -186 -176 -87 -83 -175 -166
-194 -184 -186 -173 -487 -473 -506 -505 -46 -80 -61 -217 -33 -303 24 -72 77
-147 308 -436 l134 -169 23 28 c20 25 433 711 659 1095 54 91 105 176 114 190
8 14 21 34 27 45 6 11 55 94 109 185 517 869 683 1155 692 1188 3 14 -1 30
-12 42 -22 24 -22 24 -58 5z"/>
<path d="M3949 3313 c-40 -44 -203 -254 -306 -393 -108 -146 -113 -159 -113
-292 0 -165 10 -181 218 -388 172 -170 265 -259 532 -510 85 -80 190 -179 235
-221 44 -42 98 -93 120 -114 41 -38 73 -68 335 -316 85 -81 171 -161 190 -179
19 -18 90 -84 157 -147 183 -173 203 -183 240 -126 16 23 15 28 -14 87 -17 34
-281 483 -586 997 -305 514 -563 949 -573 966 -40 70 -379 639 -390 656 -10
16 -14 14 -45 -20z"/>
<path d="M2671 3318 c-41 -65 -221 -361 -221 -363 0 -1 -29 -49 -63 -106 -35
-57 -242 -403 -459 -769 -649 -1092 -736 -1242 -803 -1372 -38 -74 -39 -77
-22 -96 32 -36 52 -33 109 15 29 25 55 48 58 52 3 3 34 33 70 65 36 33 94 87
130 121 36 33 139 130 230 215 91 85 174 164 186 175 31 29 321 304 364 345
78 73 409 390 518 495 352 339 352 339 378 438 16 63 10 176 -14 229 -29 65
-420 578 -440 578 -4 0 -14 -10 -21 -22z"/>
<path d="M3274 2038 c-23 -6 -335 -244 -364 -277 -3 -4 -30 -26 -60 -51 -77
-63 -60 -49 -434 -361 -187 -155 -348 -289 -359 -298 -11 -9 -24 -21 -31 -26
-6 -6 -99 -84 -206 -175 -243 -206 -240 -203 -240 -226 1 -50 -107 -47 1744
-48 l1725 -1 23 23 c21 21 22 24 8 49 -14 25 -327 291 -821 698 -106 88 -259
214 -339 281 -310 257 -511 414 -533 416 -63 4 -86 3 -113 -4z"/>
</g>
</svg>
